<?xml version="1.0" encoding="UTF-8" standalone="no"?>
<svg width="66px" height="64px" viewBox="0 0 66 64" version="1.1" xmlns="http://www.w3.org/2000/svg" xmlns:xlink="http://www.w3.org/1999/xlink" xmlns:sketch="http://www.bohemiancoding.com/sketch/ns">
    <!-- Generator: Sketch 3.0.3 (7891) - http://www.bohemiancoding.com/sketch -->
    <title>metapic-symbol</title>
    <desc>Created with Sketch.</desc>
    <defs></defs>
    <g id="Page-2" stroke="none" stroke-width="1" fill="none" fill-rule="evenodd" sketch:type="MSPage">
        <g id="metapic-symbol" sketch:type="MSArtboardGroup">
            <g id="symbol-2" sketch:type="MSLayerGroup">
                <path d="M30.7899603,62.890883 C31.9910991,64.0547627 33.8650699,64.0547627 35.0200578,62.9287712 C35.0200578,62.9287712 42.630104,56.867835 50.6482216,49.0521992 C51.5093009,48.2115536 52.4518421,47.2635234 53.2667705,46.4406379 C51.9185974,39.7738594 48.9237436,33.2889074 44.3048728,28.3864334 C43.980597,28.0422466 43.5584605,27.9535695 43.2191357,27.6228412 L43.2191357,35.9333923 C43.2191357,45.9299705 38.2263332,55.8117 30.7899603,62.890883 Z" id="Gul" fill="#F9B133" sketch:type="MSShapeGroup"></path>
                <path d="M51.9853842,47.7355825 C52.1104775,47.6112617 52.2343564,47.4869408 52.3582352,47.363804 C52.6290683,47.0926662 53.0146412,46.7009356 53.2818308,46.4321658 C52.5444441,42.7887798 51.6168219,38.7351815 49.9023472,35.4678307 C48.2621573,32.3420477 45.7579367,30.1008253 43.2324951,27.6370493 C48.1925061,33.1391337 51.0963715,40.3165893 51.9853842,47.7355825 Z" id="Gul-skugga" opacity="0.1" fill="#000000" sketch:type="MSShapeGroup"></path>
                <path d="M43.2191357,27.6228412 C48.3916838,32.6643466 51.7206236,39.4202954 53.1634475,46.5551267 C59.5990739,40.0608436 64.4655453,34.3070355 64.9173387,33.771864 C57.6558535,26.5198159 47.4455897,21.7466102 37.1915807,21.7466102 L43.2191357,27.6228412 Z" id="Lila" fill="#BB0D71" sketch:type="MSShapeGroup"></path>
                <path d="M37.1915807,21.7466102 C47.2719164,22.3741344 56.9247487,27.7092737 63.6846461,35.2158835 C63.8133829,35.0655145 63.9336183,34.9269856 64.0429231,34.8002967 C64.4752845,34.2982774 64.8344759,33.8600706 64.9279922,33.7499579 C58.2296774,27.0621168 48.9976098,22.3255765 39.5632332,21.6540358 C39.0095064,21.6146215 38.3694158,21.5273438 37.814683,21.5150691 C37.5742123,21.5103331 37.4308369,21.7466102 37.1915807,21.7466102 L62.8819139,33.3308326" id="Lila-skugga" fill="#9A0B5D" sketch:type="MSShapeGroup"></path>
                <path d="M64.8432775,33.8637465 C66.0371293,32.6903948 66.0371293,30.8634706 64.8821414,29.7374792 C64.8821414,29.7374792 58.3177782,21.9786758 50.6482216,14.5016662 C49.7932148,13.6681247 48.7207923,12.666985 47.8706435,11.8665957 C40.5496479,13.2731971 33.6040267,16.7027366 28.4314785,21.744242 L37.1915807,21.7442422 C47.4455897,21.7442422 57.5817923,26.6116985 64.8432775,33.8637465 Z" id="Rosa" fill="#E5007E" sketch:type="MSShapeGroup"></path>
                <path d="M28.6658028,21.7442422 C34.3107908,16.9028341 41.6803663,14.0647673 49.296485,13.1980735 C49.1118813,13.0204724 48.9248486,12.8440552 48.7402448,12.667638 C48.5216351,12.4616207 48.3030254,12.2556033 48.0856303,12.0495859 C40.7634201,13.4573713 33.838351,16.7039208 28.6658028,21.7442422 Z" id="Rosa-skugga" fill-opacity="0.1" fill="#000000" sketch:type="MSShapeGroup"></path>
                <path d="M28.6658028,21.7466102 C33.838351,16.7027368 40.7646346,13.4585553 48.0856303,12.051954 C41.6281429,5.98391373 35.5543988,1.07186758 34.9957296,0.623128605 C27.5593566,7.70231153 22.4685321,17.8456687 22.4685321,27.842247 L28.6658028,21.7466102 Z" id="Blå" fill="#349FD6" sketch:type="MSShapeGroup"></path>
                <path d="M22.6382479,27.6204732 C23.281932,17.79676 28.7532467,8.38744966 36.4507368,1.79844598 C35.7244668,1.19578599 35.24474,0.807431413 35.0844262,0.678374557 C27.6310503,7.7445334 22.6394624,17.6250789 22.6382479,27.6204732 Z" id="Skugga-blå" opacity="0.2" fill="#000000" sketch:type="MSShapeGroup"></path>
                <path d="M35.0674232,0.662982455 C33.8650699,-0.499713252 31.9923136,-0.499713252 30.8361112,0.625094204 C30.8361112,0.625094204 22.0637902,7.81794188 15.2103764,14.5016662 C14.3735871,15.3150796 13.4743521,16.2070219 12.6387773,17.0571395 C14.0816012,24.1896028 17.4669144,30.9932033 22.638248,36.0323408 L22.6382479,27.6216572 C22.6382479,17.6250789 27.6286213,7.74216538 35.0674232,0.662982455 Z" id="Ljusblå" fill="#32BAD8" sketch:type="MSShapeGroup"></path>
                <path d="M13.4262784,16.2693899 C13.1821643,16.5144795 12.878083,16.8200353 12.6351833,17.067493 C12.83679,18.0703476 13.0621224,19.0857424 13.3402425,20.0696529 C15.0332531,26.0773087 18.1883262,31.5892675 22.6248884,35.9180002 C17.6648774,30.4159157 14.7610121,23.2396441 13.8719993,15.8230189 C13.7238305,15.9710199 13.5744472,16.1202049 13.4262784,16.2693899 Z" id="Ljusblå-skugga" fill-opacity="0.100000001" fill="#000000" sketch:type="MSShapeGroup"></path>
                <path d="M22.6382479,35.9333923 C17.4669142,30.8918868 14.1391889,24.1418581 12.696365,17.0082108 C6.94207215,22.8607616 1.42985951,29.2166764 0.940416701,29.7814481 C1.64331126,30.4830826 2.42946795,31.219771 3.1836935,31.8745057 C10.2225482,37.9848557 19.4689212,41.8797658 28.7294354,41.8797658 L22.6382479,35.9333923 Z" id="Ljusgrön" fill="#269B58" sketch:type="MSShapeGroup"></path>
                <path d="M1.73485443,28.8823152 C1.29642055,29.3819665 1.08145779,29.6297625 0.985512422,29.7410592 C8.24821211,36.9907393 18.4130084,41.8950598 28.6658028,41.8950598 C18.5915396,41.2675356 8.90133393,35.9007428 2.14508002,28.4012371" id="Ljusgrön-skugga" opacity="0.2" fill="#000000" sketch:type="MSShapeGroup"></path>
                <path d="M0.974027618,33.8163862 C0.974027618,33.8163862 7.5408198,41.5763737 15.2103764,49.0521992 C16.0653832,49.8857407 16.9216045,50.7050742 17.7729678,51.5030955 C25.0903199,50.0976782 32.0178181,46.8511286 37.1915807,41.8096232 L28.6658028,41.8096232 C18.4130084,41.8096232 8.27680575,36.943351 1.01410606,29.6936709 L0.974027618,29.7374792 C-0.180960243,30.8634706 -0.180960243,32.6903948 0.974027618,33.8163862" id="Grön" fill="#35875A" sketch:type="MSShapeGroup"></path>
                <path d="M37.1915807,41.8096232 C31.5453782,46.6510313 24.1758027,49.4890981 16.5608985,50.3569759 C16.6689888,50.4599846 16.7770792,50.5618092 16.883955,50.6648179 C17.1802926,50.9466118 17.4766302,51.2260376 17.7729678,51.5030955 C25.0903199,50.0976782 32.0178181,46.8511286 37.1915807,41.8096232" id="Grön-skugga" fill="#2C6F4A" sketch:type="MSShapeGroup"></path>
                <path d="M43.2191357,35.9333923 L37.1915807,41.8096232 C32.0178181,46.8511286 25.0903199,50.0976782 17.7729678,51.5054635 C24.2292406,57.5711357 30.2312911,62.439776 30.7899603,62.890883 C38.2263332,55.8117 43.2191357,45.9299705 43.2191357,35.9333923" id="Orange" fill="#F29100" sketch:type="MSShapeGroup"></path>
                <path d="M43.2191357,35.9333923 C42.5754516,45.7571054 37.1041368,55.1675998 29.4042178,61.7566034 C29.5621025,61.8856603 29.7090568,62.0064291 29.8414371,62.1165418 C30.1887837,62.4018877 30.4523298,62.6161931 30.6199305,62.753538 C30.6964439,62.8162905 30.7535254,62.8612828 30.7887458,62.890883 C38.2275477,55.809332 43.2191357,45.9287865 43.2191357,35.9333923" id="Orange-skugga" fill="#C77700" sketch:type="MSShapeGroup"></path>
            </g>
        </g>
    </g>
</svg>