<?xml version="1.0" encoding="UTF-8" standalone="no"?>
<svg width="20px" height="20px" viewBox="0 0 20 20" version="1.1" xmlns="http://www.w3.org/2000/svg" xmlns:xlink="http://www.w3.org/1999/xlink" xmlns:sketch="http://www.bohemiancoding.com/sketch/ns">
    <!-- Generator: Sketch 3.3.2 (12043) - http://www.bohemiancoding.com/sketch -->
    <title>create_collage_gray</title>
    <desc>Created with Sketch.</desc>
    <defs></defs>
    <g id="Page-1" stroke="none" stroke-width="1" fill="none" fill-rule="evenodd" sketch:type="MSPage">
        <g id="Artboard-1" sketch:type="MSArtboardGroup" transform="translate(-242.000000, -491.000000)" fill="#777777">
            <g id="create_collage_gray" sketch:type="MSLayerGroup" transform="translate(242.000000, 491.000000)">
                <path d="M11.4764266,5 C11.4764266,5 5.00000011,4.98523206 5,5 C5.00000009,4.98523207 5,11 5,11 L4,11 L3.99999983,4.9852322 L3,5.70001221 C3,5.70001221 2.24102783,4.59344473 2,3.99707022 C2,3.99707022 3.64767664,2.38225589 3.78455164,2.31870326 C4.01480164,2.21259799 5.13661414,2.0359401 5,2 C5.32392664,3.32172957 8.79445068,3.42046641 9,2.07075589 L9,2 C9,2 10.0313123,2.2446956 10.1999266,2.31851905 C10.3510516,2.38225589 12,3.99707022 12,3.99707022 C11.8750142,4.29513164 11.4764266,5 11.4764266,5 Z" id="Shape-Copy-30" sketch:type="MSShapeGroup"></path>
                <path d="M14,4.5 L14,0.5 L14,1.95570056e-15 L13.5,1.84467826e-15 L0.5,6.83214169e-17 L1.15642538e-13,0 L1.15531516e-13,0.5 L1.13755159e-13,13.5 L1.13686838e-13,14 L0.5,14 L4.5,14 L5,14 L5,13 L4.5,13 L0.5,13 L1,13.5 L1,0.5 L0.5,1 L13.5,1 L13,0.5 L13,4.5 L13,5 L14,5 L14,4.5 L14,4.5 Z" id="Shape" sketch:type="MSShapeGroup"></path>
                <path d="M17.0000002,12 L16,11.4918795 C16,11.4918795 16.0000001,16.9999999 16,17 C16.0000001,16.9999999 10,17 10,17 L10,11.5126953 L9.00000017,12 C9.00000017,12 8.24102783,10.5934447 8,9.99707022 C8,9.99707022 9.64767664,8.38225589 9.78455164,8.31870326 C10.0148016,8.21259799 11.1366141,8.0359401 11,8 C11.1617213,8.6598774 11.9635904,9.5 13.0402058,9.5 C14.1168213,9.5 14.8970718,8.74661944 15,8.07075589 L15,8 C15,8 16.0313123,8.2446956 16.1999266,8.31851905 C16.3510516,8.38225589 18,9.99707022 18,9.99707022 C17.7131958,10.6810302 17.0000002,12 17.0000002,12 Z" id="Shape-Copy-23" sketch:type="MSShapeGroup"></path>
                <rect id="Rectangle-21-Copy-31" sketch:type="MSShapeGroup" x="18" y="6" width="2" height="2"></rect>
                <rect id="Rectangle-21-Copy-30" sketch:type="MSShapeGroup" x="6" y="6" width="2" height="2"></rect>
                <rect id="Rectangle-21-Copy-29" sketch:type="MSShapeGroup" x="6" y="18" width="2" height="2"></rect>
                <rect id="Rectangle-21-Copy-28" sketch:type="MSShapeGroup" x="18" y="18" width="2" height="2"></rect>
                <path d="M19,9.5 L19,16.5 L19,17 L20,17 L20,16.5 L20,9.5 L20,9 L19,9 L19,9.5 L19,9.5 Z" id="Shape" sketch:type="MSShapeGroup"></path>
                <path d="M6,9.5 L6,16.5 L6,17 L7,17 L7,16.5 L7,9.5 L7,9 L6,9 L6,9.5 L6,9.5 Z" id="Shape" sketch:type="MSShapeGroup"></path>
                <path d="M9.5,7 L16.5,7 L17,7 L17,6 L16.5,6 L9.5,6 L9,6 L9,7 L9.5,7 L9.5,7 Z" id="Shape" sketch:type="MSShapeGroup"></path>
                <path d="M9.5,20 L16.5,20 L17,20 L17,19 L16.5,19 L9.5,19 L9,19 L9,20 L9.5,20 L9.5,20 Z" id="Shape" sketch:type="MSShapeGroup"></path>
            </g>
        </g>
    </g>
</svg>