<?xml version="1.0" encoding="UTF-8"?>
<!-- Generator: Adobe Illustrator 18.1.1, SVG Export Plug-In . SVG Version: 6.00 Build 0)  -->
<svg version="1.1" id="Lager_1" xmlns:sketch="http://www.bohemiancoding.com/sketch/ns" xmlns="http://www.w3.org/2000/svg" xmlns:xlink="http://www.w3.org/1999/xlink" x="0px" y="0px" viewBox="-207 369 56.2 55" enable-background="new -207 369 56.2 55" xml:space="preserve">
<title>logo</title>
<desc>Created with Sketch.</desc>
<g id="g3219">
	<path id="path2427" fill="#CCCCCC" d="M-206.7,381.7c8.5-4.6,15.8-4.1,23.1-8.1c3.9,0.8,6.8,0.5,9.4-0.1c8.2,3.8,15.4,4.4,23.1,8.2   c-0.6,4-2,7.5-4.4,10.3c-2.8-1.5-5.5-2.1-8.1-2.2l-0.2,27.5c-11.2,2.1-20.7,1.2-30-0.1L-194,390c-3.3-0.1-5.8,1.1-8.3,2.2   C-204.8,388.8-205.9,385.3-206.7,381.7z"/>
	<path id="path3199" fill="#CCCCCC" d="M-205.4,381.2c0.8,3.8,2.1,7.3,4.8,10.2"/>
	<path id="path3203" fill="#CCCCCC" d="M-193.5,415.8c9.8,1.6,19.6,2,29.5-0.1"/>
	<path id="path3205" fill="#CCCCCC" d="M-183.7,373.7c-0.1,0.8,0.6,4.4,4.9,4.7c4.2,0.2,5-4,4.9-4.6"/>
	<path id="path3207" fill="#CCCCCC" d="M-185.5,374.7c-0.1,0.8,1.6,5.3,6.4,5.4c4.9,0.1,6.9-5.1,6.8-5.7"/>
	<path id="path3209" fill="#CCCCCC" d="M-183.3,375.3c3,0.8,5.6,0.6,8.8-0.1"/>
	<path id="path3213" fill="#CCCCCC" d="M-193.9,377.4c0.9,3.5,2.4,7.5-0.1,12.4"/>
	<path id="path3215" fill="#CCCCCC" d="M-163.8,377.5c-0.9,3.5-2.4,7.5,0.1,12.4"/>
	<path id="path3217" fill="#CCCCCC" d="M-152.3,381.1c-0.8,3.8-2.1,7.3-4.8,10.2"/>
</g>
<g>
	<path id="Fill-1" fill="#BB0D71" d="M-177.3,390.4l2.3,2.3c2,2,3.3,4.7,3.9,7.5c2.5-2.6,4.4-4.8,4.5-5.1   C-169.3,392.4-173.3,390.4-177.3,390.4"/>
	<path id="Fill-2" fill="#F9B133" d="M-174.9,396.1c0,4-1.9,7.9-4.8,10.7l0,0c0.4,0.4,1.2,0.4,1.6,0c0,0,3-2.4,6.1-5.5   c0.3-0.3,0.7-0.7,1-1c-0.6-2.8-1.9-5.5-3.9-7.5V396.1"/>
	<path id="Fill-3" fill="#F29100" d="M-174.9,396.1l-2.3,2.3c-2,2-4.7,3.3-7.5,3.9c2.5,2.4,4.8,4.4,5.1,4.5   C-176.9,404-174.9,400.1-174.9,396.1"/>
	<path id="Fill-4" fill="#35875A" d="M-191.3,395.3c0,0,2.6,3.1,5.5,6.1c0.3,0.3,0.7,0.7,1,1c2.8-0.6,5.5-1.9,7.5-3.9h-3.3   c-4,0-7.9-1.9-10.7-4.8l0,0C-191.8,394.1-191.8,394.8-191.3,395.3"/>
	<path id="Fill-5" fill="#269B58" d="M-180.6,398.4l-2.3-2.3c-2-2-3.3-4.7-3.9-7.5c-2.2,2.3-4.3,4.8-4.5,5.1   C-188.5,396.5-184.6,398.4-180.6,398.4"/>
	<path id="Fill-6" fill="#32BAD8" d="M-182.9,392.8c0-4,1.9-7.9,4.8-10.7l0,0c-0.4-0.4-1.2-0.4-1.6,0c0,0-3.4,2.9-6.1,5.5   c-0.3,0.3-0.7,0.7-1,1c0.6,2.8,1.9,5.5,3.9,7.5V392.8"/>
	<path id="Fill-7" fill="#349FD6" d="M-182.9,392.8l2.3-2.3c2-2,4.7-3.3,7.5-3.9c-2.5-2.4-4.8-4.4-5.1-4.5   C-181,384.9-182.9,388.8-182.9,392.8"/>
	<path id="Fill-8" fill="#E5007E" d="M-177.3,390.4c4,0,7.9,1.9,10.7,4.8l0,0c0.4-0.4,0.4-1.2,0-1.6c0,0-2.5-3.1-5.5-6.1   c-0.3-0.3-0.7-0.7-1-1c-2.8,0.6-5.5,1.9-7.5,3.9H-177.3"/>
	<path id="Fill-9" fill="#D2D2D1" d="M-179.8,406.8C-179.8,406.8-179.8,406.8-179.8,406.8L-179.8,406.8   C-179.8,406.8-179.8,406.8-179.8,406.8 M-180.3,406.4L-180.3,406.4c0.1,0.1,0.1,0.1,0.2,0.1C-180.2,406.5-180.2,406.4-180.3,406.4"/>
	<path id="Fill-10" fill="#C77700" d="M-174.9,396.1c-0.2,3.9-2.4,7.7-5.4,10.3c0.1,0.1,0.1,0.1,0.2,0.1c0.1,0.1,0.2,0.2,0.3,0.3   c0,0,0.1,0,0.1,0.1C-176.9,404-174.9,400.1-174.9,396.1"/>
	<path id="Fill-11" fill="#D2D2D1" d="M-185.3,401.8L-185.3,401.8c0,0,0.1,0.1,0.1,0.1C-185.2,401.9-185.2,401.9-185.3,401.8"/>
	<path id="Fill-12" fill="#2C6F4A" d="M-177.3,398.4c-2.2,1.9-5.1,3.1-8,3.4c0,0,0.1,0.1,0.1,0.1c0.1,0.1,0.2,0.2,0.3,0.3   C-182,401.7-179.3,400.4-177.3,398.4"/>
	<path id="Fill-13" fill="#D2D2D1" d="M-191,393.2c-0.2,0.2-0.3,0.3-0.3,0.4C-191.3,393.6-191.2,393.4-191,393.2"/>
	<path id="Fill-14" fill="#1F8048" d="M-190.9,393.1c0,0.1-0.1,0.1-0.1,0.2c-0.2,0.2-0.3,0.3-0.3,0.4c2.8,2.9,6.8,4.8,10.7,4.8   C-184.5,398.2-188.2,396.1-190.9,393.1"/>
	<path id="Fill-15" fill="#D2D2D1" d="M-186.5,389.7c0.7,2.4,1.9,4.6,3.6,6.4c0,0,0,0,0,0C-184.6,394.4-185.8,392.1-186.5,389.7    M-186.5,388.3c-0.1,0.1-0.2,0.2-0.3,0.3C-186.7,388.5-186.6,388.4-186.5,388.3"/>
	<path id="Fill-16" fill="#2999B1" d="M-186.3,388.1c-0.1,0.1-0.1,0.1-0.2,0.2c-0.1,0.1-0.2,0.2-0.3,0.3c0.1,0.4,0.2,0.8,0.3,1.2   c0.7,2.4,1.9,4.6,3.6,6.3C-184.8,393.9-186,391-186.3,388.1"/>
	<path id="Fill-17" fill="#D2D2D1" d="M-178.1,382.1c0.1,0.1,0.2,0.2,0.5,0.4C-177.8,382.3-178,382.1-178.1,382.1 M-178.1,382   c-2.8,2.7-4.7,6.5-4.8,10.4c0,0.1,0,0.2,0,0.4C-182.9,388.8-181,384.9-178.1,382C-178.1,382-178.1,382-178.1,382   C-178.1,382-178.1,382-178.1,382"/>
	<path id="Fill-18" fill="#2999B1" d="M-182.9,392.4c0,0.1,0,0.2,0,0.4C-182.9,392.7-182.9,392.5-182.9,392.4"/>
	<path id="Fill-19" fill="#2B83B0" d="M-178.1,382c-2.9,2.8-4.8,6.8-4.8,10.7c0.3-3.9,2.4-7.7,5.4-10.3   C-177.8,382.3-178,382.1-178.1,382C-178.1,382.1-178.1,382.1-178.1,382C-178.1,382-178.1,382-178.1,382"/>
	<path id="Fill-20" fill="#D2D2D1" d="M-172.8,386.8c0.1,0.1,0.1,0.1,0.2,0.2C-172.6,387-172.7,386.9-172.8,386.8"/>
	<path id="Fill-21" fill="#BC0067" d="M-173,386.6L-173,386.6c-2.8,0.6-5.5,1.9-7.5,3.9c2.2-1.9,5.1-3.1,8-3.4   c-0.1-0.1-0.1-0.1-0.2-0.2C-172.9,386.7-172.9,386.7-173,386.6"/>
	<path id="Fill-22" fill="#D2D2D1" d="M-166.8,395.6c0,0.1-0.1,0.1-0.1,0.2v0C-166.9,395.8-166.9,395.7-166.8,395.6"/>
	<path id="Fill-23" fill="#9A0B5D" d="M-177.3,390.4c3.9,0.3,7.7,2.4,10.3,5.4c0.1-0.1,0.1-0.1,0.1-0.2c0.2-0.2,0.3-0.3,0.3-0.4   c-2.8-2.8-6.6-4.7-10.5-4.8C-177.1,390.4-177.2,390.4-177.3,390.4"/>
	<path id="Fill-24" fill="#D2D2D1" d="M-171.4,400.7c0,0-0.1,0.1-0.1,0.1C-171.5,400.8-171.4,400.7-171.4,400.7"/>
	<path id="Fill-25" fill="#9A0B5D" d="M-174.9,392.8C-174.9,392.8-174.9,392.8-174.9,392.8c2,2,3.3,4.7,3.9,7.5   C-171.6,397.5-172.9,394.8-174.9,392.8"/>
	<path id="Fill-26" fill="#CC922A" d="M-174.9,392.8c1.9,2.2,3.1,5.1,3.4,8c0,0,0.1-0.1,0.1-0.1c0.1-0.1,0.2-0.2,0.3-0.3   C-171.6,397.5-172.9,394.8-174.9,392.8"/>
</g>
</svg>