<?xml version="1.0" encoding="UTF-8" standalone="no"?>
<svg width="20px" height="20px" viewBox="0 0 20 20" version="1.1" xmlns="http://www.w3.org/2000/svg" xmlns:xlink="http://www.w3.org/1999/xlink" xmlns:sketch="http://www.bohemiancoding.com/sketch/ns">
    <!-- Generator: Sketch 3.3.2 (12043) - http://www.bohemiancoding.com/sketch -->
    <title>tag_image_color</title>
    <desc>Created with Sketch.</desc>
    <defs></defs>
    <g id="Page-1" stroke="none" stroke-width="1" fill="none" fill-rule="evenodd" sketch:type="MSPage">
        <g id="Artboard-1" sketch:type="MSArtboardGroup" transform="translate(-162.000000, -431.000000)">
            <g id="tag_image_color" sketch:type="MSLayerGroup" transform="translate(162.000000, 431.000000)">
                <path d="M3,5.25 C3,4.90624828 3.12239461,4.61198039 3.3671875,4.3671875 C3.61198039,4.12239461 3.90624828,4 4.25,4 L15.75,4 C16.0937517,4 16.3880196,4.12239461 16.6328125,4.3671875 C16.8776054,4.61198039 17,4.90624828 17,5.25 L17,14.75 C17,15.0937517 16.8776054,15.3880196 16.6328125,15.6328125 C16.3880196,15.8776054 16.0937517,16 15.75,16 L4.25,16 C3.90624828,16 3.61198039,15.8776054 3.3671875,15.6328125 C3.12239461,15.3880196 3,15.0937517 3,14.75 L3,5.25 Z M4,14.75 C4,14.8177087 4.02283631,14.8763018 4.06850962,14.9257812 C4.11418292,14.9752607 4.16826892,15 4.23076923,15 L15.7692308,15 C15.8317311,15 15.8858171,14.9752607 15.9314904,14.9257812 C15.9771637,14.8763018 16,14.8177087 16,14.75 L16,5.25 C16,5.18229133 15.9771637,5.12369816 15.9314904,5.07421875 C15.8858171,5.02473934 15.8317311,5 15.7692308,5 L4.23076923,5 C4.16826892,5 4.11418292,5.02473934 4.06850962,5.07421875 C4.02283631,5.12369816 4,5.18229133 4,5.25 L4,14.75 Z M5,14 L5,12 L7.5,10 L8.75,11.25 L12.75,7.25 L15,10.5 L15,14 L5,14 Z M5,7.5 C5,7.08333125 5.14583187,6.72916813 5.4375,6.4375 C5.72916813,6.14583187 6.08333125,6 6.5,6 C6.91666875,6 7.27083187,6.14583187 7.5625,6.4375 C7.85416813,6.72916813 8,7.08333125 8,7.5 C8,7.91666875 7.85416813,8.27083187 7.5625,8.5625 C7.27083187,8.85416813 6.91666875,9 6.5,9 C6.08333125,9 5.72916813,8.85416813 5.4375,8.5625 C5.14583187,8.27083187 5,7.91666875 5,7.5 L5,7.5 Z" id="-copy-5" fill="#000000" sketch:type="MSShapeGroup"></path>
                <path d="M16,1 L19.5,1 L19,0.5 L19,4 L20,4 L20,0.5 L20,0 L19.5,0 L16,0 L16,1 L16,1 Z" id="Shape" fill="#006CB0" sketch:type="MSShapeGroup"></path>
                <path d="M1,4 L1,0.5 L0.5,1 L4,1 L4,0 L0.5,0 L2.22044605e-16,0 L2.22044605e-16,0.5 L0,4 L1,4 L1,4 Z" id="Shape" fill="#006CB0" sketch:type="MSShapeGroup"></path>
                <path d="M16,20 L19.5,20 L20,20 L20,19.5 L20,16 L19,16 L19,19.5 L19.5,19 L16,19 L16,20 L16,20 Z" id="Shape" fill="#006CB0" sketch:type="MSShapeGroup"></path>
                <path d="M0,16 L2.22044605e-16,19.5 L2.22044605e-16,20 L0.5,20 L4,20 L4,19 L0.5,19 L1,19.5 L1,16 L0,16 L0,16 Z" id="Shape" fill="#006CB0" sketch:type="MSShapeGroup"></path>
                <path d="M6.5,1 L8.5,1 L9,1 L9,0 L8.5,0 L6.5,0 L6,0 L6,1 L6.5,1 L6.5,1 Z" id="Shape" fill="#006CB0" sketch:type="MSShapeGroup"></path>
                <path d="M11.5,1 L13.5,1 L14,1 L14,0 L13.5,0 L11.5,0 L11,0 L11,1 L11.5,1 L11.5,1 Z" id="Shape" fill="#006CB0" sketch:type="MSShapeGroup"></path>
                <path d="M6.5,20 L8.5,20 L9,20 L9,19 L8.5,19 L6.5,19 L6,19 L6,20 L6.5,20 L6.5,20 Z" id="Shape" fill="#006CB0" sketch:type="MSShapeGroup"></path>
                <path d="M11.5,20 L13.5,20 L14,20 L14,19 L13.5,19 L11.5,19 L11,19 L11,20 L11.5,20 L11.5,20 Z" id="Shape" fill="#006CB0" sketch:type="MSShapeGroup"></path>
                <path d="M19,6.5 L19,8.5 L19,9 L20,9 L20,8.5 L20,6.5 L20,6 L19,6 L19,6.5 L19,6.5 Z" id="Shape" fill="#006CB0" sketch:type="MSShapeGroup"></path>
                <path d="M19,11.5 L19,13.5 L19,14 L20,14 L20,13.5 L20,11.5 L20,11 L19,11 L19,11.5 L19,11.5 Z" id="Shape" fill="#006CB0" sketch:type="MSShapeGroup"></path>
                <path d="M0,6.5 L0,8.5 L0,9 L1,9 L1,8.5 L1,6.5 L1,6 L0,6 L0,6.5 L0,6.5 Z" id="Shape" fill="#006CB0" sketch:type="MSShapeGroup"></path>
                <path d="M0,11.5 L0,13.5 L0,14 L1,14 L1,13.5 L1,11.5 L1,11 L0,11 L0,11.5 L0,11.5 Z" id="Shape" fill="#006CB0" sketch:type="MSShapeGroup"></path>
                <path d="M0.5,2 L1.5,2 L2,2 L2,1 L1.5,1 L0.5,1 L0,1 L0,2 L0.5,2 L0.5,2 Z" id="Shape" fill="#006CB0" sketch:type="MSShapeGroup"></path>
                <path d="M18.5,2 L19.5,2 L20,2 L20,1 L19.5,1 L18.5,1 L18,1 L18,2 L18.5,2 L18.5,2 Z" id="Shape" fill="#006CB0" sketch:type="MSShapeGroup"></path>
                <path d="M18.5,19 L19.5,19 L20,19 L20,18 L19.5,18 L18.5,18 L18,18 L18,19 L18.5,19 L18.5,19 Z" id="Shape" fill="#006CB0" sketch:type="MSShapeGroup"></path>
                <path d="M0.5,19 L1.5,19 L2,19 L2,18 L1.5,18 L0.5,18 L0,18 L0,19 L0.5,19 L0.5,19 Z" id="Shape" fill="#006CB0" sketch:type="MSShapeGroup"></path>
            </g>
        </g>
    </g>
</svg>