<?xml version="1.0" encoding="UTF-8" standalone="no"?>
<svg width="20px" height="20px" viewBox="0 0 20 20" version="1.1" xmlns="http://www.w3.org/2000/svg" xmlns:xlink="http://www.w3.org/1999/xlink" xmlns:sketch="http://www.bohemiancoding.com/sketch/ns">
    <!-- Generator: Sketch 3.3.2 (12043) - http://www.bohemiancoding.com/sketch -->
    <title>tag_text_black</title>
    <desc>Created with Sketch.</desc>
    <defs></defs>
    <g id="Page-1" stroke="none" stroke-width="1" fill="none" fill-rule="evenodd" sketch:type="MSPage">
        <g id="Artboard-1" sketch:type="MSArtboardGroup" transform="translate(-202.000000, -461.000000)" fill="#000000">
            <g id="tag_text_black" sketch:type="MSLayerGroup" transform="translate(202.000000, 461.000000)">
                <path d="M16,1 L19.5,1 L19,0.5 L19,4 L20,4 L20,0.5 L20,0 L19.5,0 L16,0 L16,1 L16,1 Z" id="Shape" sketch:type="MSShapeGroup"></path>
                <path d="M1,4 L1,0.5 L0.5,1 L4,1 L4,0 L0.5,0 L2.22044605e-16,0 L2.22044605e-16,0.5 L0,4 L1,4 L1,4 Z" id="Shape" sketch:type="MSShapeGroup"></path>
                <path d="M16,20 L19.5,20 L20,20 L20,19.5 L20,16 L19,16 L19,19.5 L19.5,19 L16,19 L16,20 L16,20 Z" id="Shape" sketch:type="MSShapeGroup"></path>
                <path d="M0,16 L2.22044605e-16,19.5 L2.22044605e-16,20 L0.5,20 L4,20 L4,19 L0.5,19 L1,19.5 L1,16 L0,16 L0,16 Z" id="Shape" sketch:type="MSShapeGroup"></path>
                <path d="M6.5,1 L8.5,1 L9,1 L9,0 L8.5,0 L6.5,0 L6,0 L6,1 L6.5,1 L6.5,1 Z" id="Shape" sketch:type="MSShapeGroup"></path>
                <path d="M11.5,1 L13.5,1 L14,1 L14,0 L13.5,0 L11.5,0 L11,0 L11,1 L11.5,1 L11.5,1 Z" id="Shape" sketch:type="MSShapeGroup"></path>
                <path d="M6.5,20 L8.5,20 L9,20 L9,19 L8.5,19 L6.5,19 L6,19 L6,20 L6.5,20 L6.5,20 Z" id="Shape" sketch:type="MSShapeGroup"></path>
                <path d="M11.5,20 L13.5,20 L14,20 L14,19 L13.5,19 L11.5,19 L11,19 L11,20 L11.5,20 L11.5,20 Z" id="Shape" sketch:type="MSShapeGroup"></path>
                <path d="M19,6.5 L19,8.5 L19,9 L20,9 L20,8.5 L20,6.5 L20,6 L19,6 L19,6.5 L19,6.5 Z" id="Shape" sketch:type="MSShapeGroup"></path>
                <path d="M19,11.5 L19,13.5 L19,14 L20,14 L20,13.5 L20,11.5 L20,11 L19,11 L19,11.5 L19,11.5 Z" id="Shape" sketch:type="MSShapeGroup"></path>
                <path d="M0,6.5 L0,8.5 L0,9 L1,9 L1,8.5 L1,6.5 L1,6 L0,6 L0,6.5 L0,6.5 Z" id="Shape" sketch:type="MSShapeGroup"></path>
                <path d="M0,11.5 L0,13.5 L0,14 L1,14 L1,13.5 L1,11.5 L1,11 L0,11 L0,11.5 L0,11.5 Z" id="Shape" sketch:type="MSShapeGroup"></path>
                <path d="M0.5,2 L1.5,2 L2,2 L2,1 L1.5,1 L0.5,1 L0,1 L0,2 L0.5,2 L0.5,2 Z" id="Shape" sketch:type="MSShapeGroup"></path>
                <path d="M18.5,2 L19.5,2 L20,2 L20,1 L19.5,1 L18.5,1 L18,1 L18,2 L18.5,2 L18.5,2 Z" id="Shape" sketch:type="MSShapeGroup"></path>
                <path d="M18.5,19 L19.5,19 L20,19 L20,18 L19.5,18 L18.5,18 L18,18 L18,19 L18.5,19 L18.5,19 Z" id="Shape" sketch:type="MSShapeGroup"></path>
                <path d="M0.5,19 L1.5,19 L2,19 L2,18 L1.5,18 L0.5,18 L0,18 L0,19 L0.5,19 L0.5,19 Z" id="Shape" sketch:type="MSShapeGroup"></path>
                <path d="M16,8.25581395 L15.3300971,8.25581395 C15.2718444,8.05285311 15.3053103,8.00169634 15.0145631,7.53276956 C14.7238159,7.06384277 14.2451555,6.61267495 14.0153809,6.41817081 C13.7856062,6.22366667 13.4174768,6.11232178 13.2038835,6.08413277 C13.0032352,6.06158156 12.7508106,6.04466841 12.4466019,6.03339281 C12.1423933,6.02211721 11.8608427,6.01647949 11.6019417,6.01647949 L11,6.01647949 L11,12.4188232 C11.038835,12.6048707 11.0841419,13.2042582 11.1747572,13.3592977 C11.2653725,13.5143372 11.423947,13.6341387 11.6504854,13.7187057 C11.7669908,13.7581703 12.0113249,13.8117287 12.3834951,13.8793823 C12.7556652,13.9470359 12.8015461,13.983681 13.0086669,13.9893188 L13.008667,15 L7.00592041,15 L7.00592033,13.9893188 C7.08622176,13.9843227 7.49263898,13.9293941 7.57766982,13.9216656 C7.94983997,13.8878388 8.20711895,13.8455559 8.34951448,13.7948157 C8.56310778,13.7215243 8.72006414,13.6158171 8.82038827,13.4776909 C8.92071239,13.3395648 8.97087379,12.726083 9,12.4949332 L9,6.01647949 L8.40776699,6.01647949 C8.20711874,6.01647949 7.95793029,6.02070778 7.66019417,6.02916448 C7.36245806,6.03762118 7.07767126,6.05594376 6.80582524,6.08413277 C6.59223194,6.10668397 6.24570479,6.21802886 6.01593018,6.41817081 C5.78615556,6.61831275 5.3034668,6.95098877 4.99029126,7.54968288 C4.67711573,8.14837698 4.73786437,8.06976651 4.67961165,8.25581395 L4,8.25581395 L4,5 L16,5 L16,8.25581395 Z" id="T-Copy-3" sketch:type="MSShapeGroup"></path>
            </g>
        </g>
    </g>
</svg>